<svg xmlns="http://www.w3.org/2000/svg" xmlns:xlink="http://www.w3.org/1999/xlink" viewBox="0,0,256,256" width="48px" height="48px" fill-rule="nonzero"><g fill="#30e88c" fill-rule="nonzero" stroke="none" stroke-width="1" stroke-linecap="butt" stroke-linejoin="miter" stroke-miterlimit="10" stroke-dasharray="" stroke-dashoffset="0" font-family="none" font-weight="none" font-size="none" text-anchor="none" style="mix-blend-mode: normal"><g transform="scale(5.33333,5.33333)"><path d="M28.96,5.66c-3.24,-0.88 -6.68,-0.88 -9.92,0l4.96,-5.7zM14.539,7.524c-2.913,1.669 -5.346,4.101 -7.014,7.014l-0.524,-7.537zM5.66,19.04c-0.88,3.24 -0.88,6.68 0,9.92l-5.7,-4.96zM7.524,33.461c1.669,2.913 4.101,5.346 7.014,7.014l-7.538,0.523zM19.04,42.34c3.24,0.88 6.68,0.88 9.92,0l-4.96,5.7zM33.461,40.476c2.913,-1.669 5.346,-4.101 7.014,-7.014l0.523,7.538zM42.34,28.96c0.88,-3.24 0.88,-6.68 0,-9.92l5.7,4.96zM40.476,14.539c-1.669,-2.913 -4.101,-5.346 -7.014,-7.014l7.538,-0.523zM24,8c-8.83656,0 -16,7.16344 -16,16c0,8.83656 7.16344,16 16,16c8.83656,0 16,-7.16344 16,-16c0,-8.83656 -7.16344,-16 -16,-16z"></path></g></g></svg>